<?xml version="1.0" encoding="UTF-8" standalone="no"?>
<!-- Created with Inkscape (http://www.inkscape.org/) -->

<svg
   width="6.1036358mm"
   height="6.1053996mm"
   viewBox="0 0 6.1036358 6.1053996"
   version="1.1"
   id="svg875"
   inkscape:version="1.1.1 (3bf5ae0d25, 2021-09-20, custom)"
   sodipodi:docname="logo.svg"
   xmlns:inkscape="http://www.inkscape.org/namespaces/inkscape"
   xmlns:sodipodi="http://sodipodi.sourceforge.net/DTD/sodipodi-0.dtd"
   xmlns="http://www.w3.org/2000/svg"
   xmlns:svg="http://www.w3.org/2000/svg">
  <sodipodi:namedview
     id="namedview877"
     pagecolor="#505050"
     bordercolor="#ffffff"
     borderopacity="1"
     inkscape:pageshadow="0"
     inkscape:pageopacity="0"
     inkscape:pagecheckerboard="1"
     inkscape:document-units="mm"
     showgrid="false"
     inkscape:zoom="6.2217172"
     inkscape:cx="28.689829"
     inkscape:cy="27.243283"
     inkscape:window-width="1280"
     inkscape:window-height="720"
     inkscape:window-x="3840"
     inkscape:window-y="720"
     inkscape:window-maximized="1"
     inkscape:current-layer="layer1" />
  <defs
     id="defs872" />
  <g
     inkscape:label="Layer 1"
     inkscape:groupmode="layer"
     id="layer1"
     transform="translate(-64.309005,-112.95675)">
    <path
       id="path1963-6"
       style="fill:#0000ff;fill-opacity:0;stroke:#ffffff;stroke-width:0.25;stroke-miterlimit:4;stroke-dasharray:none"
       d="m 70.28751,116.01024 a 2.9267525,2.9267542 0 0 1 -2.926752,2.92675 2.9267525,2.9267542 0 0 1 -2.926753,-2.92675 2.9267525,2.9267542 0 0 1 2.926753,-2.92676 2.9267525,2.9267542 0 0 1 2.926752,2.92676 z m -4.996296,2.06969 a 2.9267525,2.9267541 0 0 0 0.212786,0.19261 2.9267525,2.9267541 0 0 0 0.230937,0.17144 2.9267525,2.9267541 0 0 0 0.246065,0.14724 2.9267525,2.9267541 0 0 0 0.259679,0.12303 2.9267525,2.9267541 0 0 0 0.270268,0.0968 2.9267525,2.9267541 0 0 0 0.27884,0.0696 2.9267525,2.9267541 0 0 0 0.283882,0.0424 2.9267525,2.9267541 0 0 0 0.286908,0.0141 2.9267525,2.9267541 0 0 0 0.286907,-0.0141 2.9267525,2.9267541 0 0 0 0.284386,-0.0424 2.9267525,2.9267541 0 0 0 0.278336,-0.0696 2.9267525,2.9267541 0 0 0 0.270772,-0.0968 2.9267525,2.9267541 0 0 0 0.259679,-0.12303 2.9267525,2.9267541 0 0 0 0.246065,-0.14724 2.9267525,2.9267541 0 0 0 0.230938,-0.17144 2.9267525,2.9267541 0 0 0 0.212785,-0.19261 2.9267525,2.9267541 0 0 0 0.192616,-0.21279 2.9267525,2.9267541 0 0 0 0.171439,-0.23094 2.9267525,2.9267541 0 0 0 0.147236,-0.24606 2.9267525,2.9267541 0 0 0 0.123032,-0.25968 2.9267525,2.9267541 0 0 0 0.09681,-0.27077 2.9267525,2.9267541 0 0 0 0.06958,-0.27834 2.9267525,2.9267541 0 0 0 0.04236,-0.28438 2.9267525,2.9267541 0 0 0 0.01412,-0.28691 2.9267525,2.9267541 0 0 0 -0.0015,-0.0958 2.9267525,2.9267541 0 0 0 -0.005,-0.0953 2.9267525,2.9267541 0 0 0 -0.0076,-0.0958 2.9267525,2.9267541 0 0 0 -0.0111,-0.0948 2.9267525,2.9267541 0 0 0 -0.01412,-0.0948 2.9267525,2.9267541 0 0 0 -0.01714,-0.0943 2.9267525,2.9267541 0 0 0 -0.02017,-0.0938 2.9267525,2.9267541 0 0 0 -0.02319,-0.0928 2.9267525,2.9267541 0 0 0 -0.02622,-0.0923 2.9267525,2.9267541 0 0 0 -0.02924,-0.0908 2.9267525,2.9267541 0 0 0 -0.03227,-0.0903 2.9267525,2.9267541 0 0 0 -0.03328,-0.0842 4.8720601,4.8813518 0 0 0 -0.20623,-0.004 4.8720601,4.8813518 0 0 0 -4.569343,3.18876 z m 4.143267,-0.005 a 2.9267525,2.9267541 0 0 0 0.188582,-0.20825 2.9267525,2.9267541 0 0 0 0.171439,-0.23094 2.9267525,2.9267541 0 0 0 0.147236,-0.24606 2.9267525,2.9267541 0 0 0 0.123032,-0.25968 2.9267525,2.9267541 0 0 0 0.09681,-0.27077 2.9267525,2.9267541 0 0 0 0.06958,-0.27834 2.9267525,2.9267541 0 0 0 0.04236,-0.28439 2.9267525,2.9267541 0 0 0 0.01412,-0.2869 2.9267525,2.9267541 0 0 0 -0.0015,-0.0958 2.9267525,2.9267541 0 0 0 -0.005,-0.0953 2.9267525,2.9267541 0 0 0 -0.0076,-0.0958 2.9267525,2.9267541 0 0 0 -0.01109,-0.0948 2.9267525,2.9267541 0 0 0 -0.01412,-0.0948 2.9267525,2.9267541 0 0 0 -0.01714,-0.0943 2.9267525,2.9267541 0 0 0 -0.02017,-0.0938 2.9267525,2.9267541 0 0 0 -0.02319,-0.0928 2.9267525,2.9267541 0 0 0 -0.02622,-0.0923 2.9267525,2.9267541 0 0 0 -0.02925,-0.0908 2.9267525,2.9267541 0 0 0 -0.03227,-0.0903 2.9267525,2.9267541 0 0 0 -0.0353,-0.0893 2.9267525,2.9267541 0 0 0 -0.03832,-0.0877 2.9267525,2.9267541 0 0 0 -0.04084,-0.0867 2.9267525,2.9267541 0 0 0 -0.04387,-0.0852 2.9267525,2.9267541 0 0 0 -0.04639,-0.0837 2.9267525,2.9267541 0 0 0 -0.04942,-0.0822 2.9267525,2.9267541 0 0 0 -0.05144,-0.0802 2.9267525,2.9267541 0 0 0 -0.05496,-0.0792 2.9267525,2.9267541 0 0 0 -0.05698,-0.0766 2.9267525,2.9267541 0 0 0 -0.0595,-0.0751 2.9267525,2.9267541 0 0 0 -0.06202,-0.0731 2.9267525,2.9267541 0 0 0 -0.06404,-0.0706 2.9267525,2.9267541 0 0 0 -0.06656,-0.0691 2.9267525,2.9267541 0 0 0 -0.06908,-0.0666 2.9267525,2.9267541 0 0 0 -0.0711,-0.0645 2.9267525,2.9267541 0 0 0 -0.07261,-0.0615 2.9267525,2.9267541 0 0 0 -0.07513,-0.06 2.9267525,2.9267541 0 0 0 -0.07715,-0.057 2.9267525,2.9267541 0 0 0 -0.07866,-0.0545 2.9267525,2.9267541 0 0 0 -0.08068,-0.0519 2.9267525,2.9267541 0 0 0 -0.08169,-0.0489 2.9267525,2.9267541 0 0 0 -0.0837,-0.0469 2.9267525,2.9267541 0 0 0 -0.08521,-0.0434 2.9267525,2.9267541 0 0 0 -0.08673,-0.0413 2.9267525,2.9267541 0 0 0 -0.08774,-0.0378 2.9267525,2.9267541 0 0 0 -0.08925,-0.0353 2.9267525,2.9267541 0 0 0 -0.09026,-0.0323 2.9267525,2.9267541 0 0 0 -0.09126,-0.0293 2.9267525,2.9267541 0 0 0 -0.09177,-0.0262 2.9267525,2.9267541 0 0 0 -0.09328,-0.0232 2.9267525,2.9267541 0 0 0 -0.09328,-0.0207 2.9267525,2.9267541 0 0 0 -0.09429,-0.0171 2.9267525,2.9267541 0 0 0 -0.0948,-0.0136 2.9267525,2.9267541 0 0 0 -0.0953,-0.0111 2.9267525,2.9267541 0 0 0 -0.0953,-0.008 2.9267525,2.9267541 0 0 0 -0.0958,-0.005 2.9267525,2.9267541 0 0 0 -0.0958,-0.002 2.9267525,2.9267541 0 0 0 -0.0055,5.1e-4 4.8720601,4.8813518 0 0 0 -0.09127,0.9298 4.8720601,4.8813518 0 0 0 2.170715,4.06159 z m -3.195817,0.63785 a 2.9267525,2.9267541 0 0 0 0.002,0.001 2.9267525,2.9267541 0 0 0 0.270268,0.0968 2.9267525,2.9267541 0 0 0 0.27884,0.0696 2.9267525,2.9267541 0 0 0 0.283882,0.0423 2.9267525,2.9267541 0 0 0 0.286908,0.0141 2.9267525,2.9267541 0 0 0 0.286907,-0.0141 2.9267525,2.9267541 0 0 0 0.284386,-0.0423 2.9267525,2.9267541 0 0 0 0.278336,-0.0696 2.9267525,2.9267541 0 0 0 0.270772,-0.0968 2.9267525,2.9267541 0 0 0 0.259679,-0.12303 2.9267525,2.9267541 0 0 0 0.246065,-0.14724 2.9267525,2.9267541 0 0 0 0.230938,-0.17144 2.9267525,2.9267541 0 0 0 0.212785,-0.19261 2.9267525,2.9267541 0 0 0 0.192616,-0.21279 2.9267525,2.9267541 0 0 0 0.171439,-0.23094 2.9267525,2.9267541 0 0 0 0.147236,-0.24606 2.9267525,2.9267541 0 0 0 0.123032,-0.25968 2.9267525,2.9267541 0 0 0 0.09681,-0.27077 2.9267525,2.9267541 0 0 0 0.06958,-0.27834 2.9267525,2.9267541 0 0 0 0.04236,-0.28439 2.9267525,2.9267541 0 0 0 0.01412,-0.2869 2.9267525,2.9267541 0 0 0 -0.0015,-0.0958 2.9267525,2.9267541 0 0 0 -0.005,-0.0953 2.9267525,2.9267541 0 0 0 -0.0076,-0.0958 2.9267525,2.9267541 0 0 0 -0.01109,-0.0948 2.9267525,2.9267541 0 0 0 -0.01412,-0.0948 2.9267525,2.9267541 0 0 0 -0.01714,-0.0943 2.9267525,2.9267541 0 0 0 -0.02017,-0.0938 2.9267525,2.9267541 0 0 0 -0.02319,-0.0928 2.9267525,2.9267541 0 0 0 -0.02622,-0.0923 2.9267525,2.9267541 0 0 0 -0.02925,-0.0908 2.9267525,2.9267541 0 0 0 -0.03227,-0.0903 2.9267525,2.9267541 0 0 0 -0.0353,-0.0893 2.9267525,2.9267541 0 0 0 -0.03832,-0.0877 2.9267525,2.9267541 0 0 0 -0.04084,-0.0867 2.9267525,2.9267541 0 0 0 -0.04387,-0.0852 2.9267525,2.9267541 0 0 0 -0.04639,-0.0837 2.9267525,2.9267541 0 0 0 -0.04941,-0.0822 2.9267525,2.9267541 0 0 0 -0.05143,-0.0802 2.9267525,2.9267541 0 0 0 -0.05496,-0.0792 2.9267525,2.9267541 0 0 0 -0.05698,-0.0766 2.9267525,2.9267541 0 0 0 -0.0595,-0.0751 2.9267525,2.9267541 0 0 0 -0.06202,-0.0731 2.9267525,2.9267541 0 0 0 -0.06404,-0.0706 2.9267525,2.9267541 0 0 0 -0.06656,-0.0691 2.9267525,2.9267541 0 0 0 -0.06908,-0.0666 2.9267525,2.9267541 0 0 0 -0.0711,-0.0645 2.9267525,2.9267541 0 0 0 -0.07261,-0.0615 2.9267525,2.9267541 0 0 0 -0.07513,-0.06 2.9267525,2.9267541 0 0 0 -0.07715,-0.057 2.9267525,2.9267541 0 0 0 -0.07866,-0.0545 2.9267525,2.9267541 0 0 0 -0.08068,-0.0519 2.9267525,2.9267541 0 0 0 -0.08169,-0.0489 2.9267525,2.9267541 0 0 0 -0.0837,-0.0469 2.9267525,2.9267541 0 0 0 -0.08521,-0.0434 2.9267525,2.9267541 0 0 0 -0.08673,-0.0413 2.9267525,2.9267541 0 0 0 -0.08774,-0.0378 2.9267525,2.9267541 0 0 0 -0.08925,-0.0353 2.9267525,2.9267541 0 0 0 -0.09026,-0.0323 2.9267525,2.9267541 0 0 0 -0.09127,-0.0293 2.9267525,2.9267541 0 0 0 -0.09177,-0.0262 2.9267525,2.9267541 0 0 0 -0.09328,-0.0232 2.9267525,2.9267541 0 0 0 -0.09328,-0.0207 2.9267525,2.9267541 0 0 0 -0.09429,-0.0171 2.9267525,2.9267541 0 0 0 -0.0948,-0.0136 2.9267525,2.9267541 0 0 0 -0.0953,-0.0111 2.9267525,2.9267541 0 0 0 -0.0953,-0.008 2.9267525,2.9267541 0 0 0 -0.0958,-0.005 2.9267525,2.9267541 0 0 0 -0.09479,-0.002 4.8720601,4.8813518 0 0 0 -1.571688,3.58912 4.8720601,4.8813518 0 0 0 0.448765,2.04063 z"
       inkscape:export-filename="/home/herbglitch/path1963-7.png"
       inkscape:export-xdpi="846.66656"
       inkscape:export-ydpi="846.66656" />
  </g>
</svg>
